<?xml version="1.0" encoding="UTF-8" standalone="no"?>
<!DOCTYPE svg PUBLIC "-//W3C//DTD SVG 1.1//EN"
 "http://www.w3.org/Graphics/SVG/1.1/DTD/svg11.dtd">
<!-- Generated by graphviz version 14.1.2 (0)
 -->
<!-- Pages: 1 -->
<svg width="1925pt" height="412pt"
 viewBox="0.00 0.00 1925.00 412.00" xmlns="http://www.w3.org/2000/svg" xmlns:xlink="http://www.w3.org/1999/xlink">
<g id="graph0" class="graph" transform="scale(1 1) rotate(0) translate(4 408)">
<polygon fill="white" stroke="none" points="-4,4 -4,-408 1921.25,-408 1921.25,4 -4,4"/>
<!-- cbm.CHROUT -->
<g id="node1" class="node">
<title>cbm.CHROUT</title>
<polygon fill="#ff6600" stroke="black" points="115.75,-316 0,-316 0,-264 115.75,-264 115.75,-316"/>
<text xml:space="preserve" text-anchor="start" x="8" y="-299.7" font-family="Times,serif" font-size="14.00">cbm.CHROUT</text>
<text xml:space="preserve" text-anchor="start" x="8.38" y="-289.5" font-family="Times,serif" font-size="10.00">Total: 187246 </text>
<text xml:space="preserve" text-anchor="start" x="78.12" y="-289.5" font-family="Times,serif" font-size="10.00" fill="blue">(30%)</text>
<text xml:space="preserve" text-anchor="start" x="39.5" y="-279.5" font-family="Times,serif" font-size="10.00">Calls: 1</text>
<text xml:space="preserve" text-anchor="start" x="27.12" y="-269.5" font-family="Times,serif" font-size="10.00">Avg: 187246</text>
</g>
<!-- txt.chrout -->
<g id="node2" class="node">
<title>txt.chrout</title>
<polygon fill="#ffaa00" stroke="black" points="371.38,-140 256.38,-140 256.38,-88 371.38,-88 371.38,-140"/>
<text xml:space="preserve" text-anchor="start" x="278.25" y="-123.7" font-family="Times,serif" font-size="14.00">txt.chrout</text>
<text xml:space="preserve" text-anchor="start" x="264.38" y="-113.5" font-family="Times,serif" font-size="10.00">Total: 113636 </text>
<text xml:space="preserve" text-anchor="start" x="334.12" y="-113.5" font-family="Times,serif" font-size="10.00" fill="blue">(18%)</text>
<text xml:space="preserve" text-anchor="start" x="292.5" y="-103.5" font-family="Times,serif" font-size="10.00">Calls: 11</text>
<text xml:space="preserve" text-anchor="start" x="286.12" y="-93.5" font-family="Times,serif" font-size="10.00">Avg: 10330</text>
</g>
<!-- txt.print -->
<g id="node3" class="node">
<title>txt.print</title>
<polygon fill="#ffaa00" stroke="black" points="969.38,-228 860.38,-228 860.38,-176 969.38,-176 969.38,-228"/>
<text xml:space="preserve" text-anchor="start" x="884.88" y="-211.7" font-family="Times,serif" font-size="14.00">txt.print</text>
<text xml:space="preserve" text-anchor="start" x="868.38" y="-201.5" font-family="Times,serif" font-size="10.00">Total: 84768 </text>
<text xml:space="preserve" text-anchor="start" x="932.12" y="-201.5" font-family="Times,serif" font-size="10.00" fill="blue">(13%)</text>
<text xml:space="preserve" text-anchor="start" x="893.5" y="-191.5" font-family="Times,serif" font-size="10.00">Calls: 16</text>
<text xml:space="preserve" text-anchor="start" x="890.12" y="-181.5" font-family="Times,serif" font-size="10.00">Avg: 5298</text>
</g>
<!-- planet.set_seed -->
<g id="node4" class="node">
<title>planet.set_seed</title>
<polygon fill="#66ff66" stroke="black" points="1153.38,-316 1026.38,-316 1026.38,-264 1153.38,-264 1153.38,-316"/>
<text xml:space="preserve" text-anchor="start" x="1034.38" y="-299.7" font-family="Times,serif" font-size="14.00">planet.set_seed</text>
<text xml:space="preserve" text-anchor="start" x="1049.38" y="-289.5" font-family="Times,serif" font-size="10.00">Total: 1123 </text>
<text xml:space="preserve" text-anchor="start" x="1107.12" y="-289.5" font-family="Times,serif" font-size="10.00" fill="blue">(0%)</text>
<text xml:space="preserve" text-anchor="start" x="1071.5" y="-279.5" font-family="Times,serif" font-size="10.00">Calls: 1</text>
<text xml:space="preserve" text-anchor="start" x="1065.12" y="-269.5" font-family="Times,serif" font-size="10.00">Avg: 1123</text>
</g>
<!-- planet.reset_rnd -->
<g id="node5" class="node">
<title>planet.reset_rnd</title>
<polygon fill="#66ff66" stroke="black" points="1003.75,-140 870,-140 870,-88 1003.75,-88 1003.75,-140"/>
<text xml:space="preserve" text-anchor="start" x="878" y="-123.7" font-family="Times,serif" font-size="14.00">planet.reset_rnd</text>
<text xml:space="preserve" text-anchor="start" x="896.38" y="-113.5" font-family="Times,serif" font-size="10.00">Total: 2322 </text>
<text xml:space="preserve" text-anchor="start" x="954.12" y="-113.5" font-family="Times,serif" font-size="10.00" fill="blue">(0%)</text>
<text xml:space="preserve" text-anchor="start" x="918.5" y="-103.5" font-family="Times,serif" font-size="10.00">Calls: 2</text>
<text xml:space="preserve" text-anchor="start" x="912.12" y="-93.5" font-family="Times,serif" font-size="10.00">Avg: 1161</text>
</g>
<!-- galaxy.init -->
<g id="node6" class="node">
<title>galaxy.init</title>
<polygon fill="#66ff66" stroke="black" points="1123.38,-228 1026.38,-228 1026.38,-176 1123.38,-176 1123.38,-228"/>
<text xml:space="preserve" text-anchor="start" x="1038.5" y="-211.7" font-family="Times,serif" font-size="14.00">galaxy.init</text>
<text xml:space="preserve" text-anchor="start" x="1034.38" y="-201.5" font-family="Times,serif" font-size="10.00">Total: 1100 </text>
<text xml:space="preserve" text-anchor="start" x="1092.12" y="-201.5" font-family="Times,serif" font-size="10.00" fill="blue">(0%)</text>
<text xml:space="preserve" text-anchor="start" x="1056.5" y="-191.5" font-family="Times,serif" font-size="10.00">Calls: 1</text>
<text xml:space="preserve" text-anchor="start" x="1050.12" y="-181.5" font-family="Times,serif" font-size="10.00">Avg: 1100</text>
</g>
<!-- galaxy.determine_planet_properties -->
<g id="node7" class="node">
<title>galaxy.determine_planet_properties</title>
<polygon fill="#ccff00" stroke="black" points="1511.38,-140 1240.38,-140 1240.38,-88 1511.38,-88 1511.38,-140"/>
<text xml:space="preserve" text-anchor="start" x="1248.38" y="-123.7" font-family="Times,serif" font-size="14.00">galaxy.determine_planet_properties</text>
<text xml:space="preserve" text-anchor="start" x="1332.38" y="-113.5" font-family="Times,serif" font-size="10.00">Total: 18527 </text>
<text xml:space="preserve" text-anchor="start" x="1396.12" y="-113.5" font-family="Times,serif" font-size="10.00" fill="blue">(3%)</text>
<text xml:space="preserve" text-anchor="start" x="1357.5" y="-103.5" font-family="Times,serif" font-size="10.00">Calls: 8</text>
<text xml:space="preserve" text-anchor="start" x="1351.12" y="-93.5" font-family="Times,serif" font-size="10.00">Avg: 2315</text>
</g>
<!-- galaxy.tweakseed -->
<g id="node8" class="node">
<title>galaxy.tweakseed</title>
<polygon fill="#ffdd00" stroke="black" points="1222.12,-140 1081.62,-140 1081.62,-88 1222.12,-88 1222.12,-140"/>
<text xml:space="preserve" text-anchor="start" x="1089.62" y="-123.7" font-family="Times,serif" font-size="14.00">galaxy.tweakseed</text>
<text xml:space="preserve" text-anchor="start" x="1108.38" y="-113.5" font-family="Times,serif" font-size="10.00">Total: 40734 </text>
<text xml:space="preserve" text-anchor="start" x="1172.12" y="-113.5" font-family="Times,serif" font-size="10.00" fill="blue">(6%)</text>
<text xml:space="preserve" text-anchor="start" x="1130.5" y="-103.5" font-family="Times,serif" font-size="10.00">Calls: 32</text>
<text xml:space="preserve" text-anchor="start" x="1127.12" y="-93.5" font-family="Times,serif" font-size="10.00">Avg: 1272</text>
</g>
<!-- galaxy.generate_next_planet -->
<g id="node9" class="node">
<title>galaxy.generate_next_planet</title>
<polygon fill="#ffdd00" stroke="black" points="1398.12,-228 1179.62,-228 1179.62,-176 1398.12,-176 1398.12,-228"/>
<text xml:space="preserve" text-anchor="start" x="1187.62" y="-211.7" font-family="Times,serif" font-size="14.00">galaxy.generate_next_planet</text>
<text xml:space="preserve" text-anchor="start" x="1245.38" y="-201.5" font-family="Times,serif" font-size="10.00">Total: 59711 </text>
<text xml:space="preserve" text-anchor="start" x="1309.12" y="-201.5" font-family="Times,serif" font-size="10.00" fill="blue">(9%)</text>
<text xml:space="preserve" text-anchor="start" x="1270.5" y="-191.5" font-family="Times,serif" font-size="10.00">Calls: 8</text>
<text xml:space="preserve" text-anchor="start" x="1264.12" y="-181.5" font-family="Times,serif" font-size="10.00">Avg: 7463</text>
</g>
<!-- galaxy.generate_next_planet&#45;&gt;galaxy.determine_planet_properties -->
<g id="edge14" class="edge">
<title>galaxy.generate_next_planet&#45;&gt;galaxy.determine_planet_properties</title>
<path fill="none" stroke="black" d="M1314.51,-175.66C1323.1,-167.17 1332.83,-157.55 1341.96,-148.53"/>
<polygon fill="black" stroke="black" points="1344.4,-151.04 1349.05,-141.52 1339.48,-146.06 1344.4,-151.04"/>
</g>
<!-- galaxy.generate_next_planet&#45;&gt;galaxy.tweakseed -->
<g id="edge24" class="edge">
<title>galaxy.generate_next_planet&#45;&gt;galaxy.tweakseed</title>
<path fill="none" stroke="black" d="M1248.51,-175.66C1233.87,-166.47 1217.15,-155.98 1201.79,-146.33"/>
<polygon fill="black" stroke="black" points="1204.04,-143.61 1193.71,-141.26 1200.31,-149.54 1204.04,-143.61"/>
</g>
<!-- strings.copy -->
<g id="node10" class="node">
<title>strings.copy</title>
<polygon fill="#66ff66" stroke="black" points="1519.75,-228 1416,-228 1416,-176 1519.75,-176 1519.75,-228"/>
<text xml:space="preserve" text-anchor="start" x="1424" y="-211.7" font-family="Times,serif" font-size="14.00">strings.copy</text>
<text xml:space="preserve" text-anchor="start" x="1427.38" y="-201.5" font-family="Times,serif" font-size="10.00">Total: 1041 </text>
<text xml:space="preserve" text-anchor="start" x="1485.12" y="-201.5" font-family="Times,serif" font-size="10.00" fill="blue">(0%)</text>
<text xml:space="preserve" text-anchor="start" x="1449.5" y="-191.5" font-family="Times,serif" font-size="10.00">Calls: 1</text>
<text xml:space="preserve" text-anchor="start" x="1443.12" y="-181.5" font-family="Times,serif" font-size="10.00">Avg: 1041</text>
</g>
<!-- galaxy.make_current_planet_name -->
<g id="node11" class="node">
<title>galaxy.make_current_planet_name</title>
<polygon fill="#66ff66" stroke="black" points="1798.12,-228 1537.62,-228 1537.62,-176 1798.12,-176 1798.12,-228"/>
<text xml:space="preserve" text-anchor="start" x="1545.62" y="-211.7" font-family="Times,serif" font-size="14.00">galaxy.make_current_planet_name</text>
<text xml:space="preserve" text-anchor="start" x="1627.38" y="-201.5" font-family="Times,serif" font-size="10.00">Total: 1739 </text>
<text xml:space="preserve" text-anchor="start" x="1685.12" y="-201.5" font-family="Times,serif" font-size="10.00" fill="blue">(0%)</text>
<text xml:space="preserve" text-anchor="start" x="1649.5" y="-191.5" font-family="Times,serif" font-size="10.00">Calls: 1</text>
<text xml:space="preserve" text-anchor="start" x="1643.12" y="-181.5" font-family="Times,serif" font-size="10.00">Avg: 1739</text>
</g>
<!-- galaxy.travel_to -->
<g id="node12" class="node">
<title>galaxy.travel_to</title>
<polygon fill="#ffaa00" stroke="black" points="1298.75,-316 1171,-316 1171,-264 1298.75,-264 1298.75,-316"/>
<text xml:space="preserve" text-anchor="start" x="1179" y="-299.7" font-family="Times,serif" font-size="14.00">galaxy.travel_to</text>
<text xml:space="preserve" text-anchor="start" x="1188.38" y="-289.5" font-family="Times,serif" font-size="10.00">Total: 74874 </text>
<text xml:space="preserve" text-anchor="start" x="1252.12" y="-289.5" font-family="Times,serif" font-size="10.00" fill="blue">(12%)</text>
<text xml:space="preserve" text-anchor="start" x="1216.5" y="-279.5" font-family="Times,serif" font-size="10.00">Calls: 1</text>
<text xml:space="preserve" text-anchor="start" x="1207.12" y="-269.5" font-family="Times,serif" font-size="10.00">Avg: 74874</text>
</g>
<!-- galaxy.travel_to&#45;&gt;galaxy.init -->
<g id="edge2" class="edge">
<title>galaxy.travel_to&#45;&gt;galaxy.init</title>
<path fill="none" stroke="black" d="M1187.74,-263.66C1170.31,-254.3 1150.37,-243.58 1132.15,-233.79"/>
<polygon fill="black" stroke="black" points="1134.03,-230.82 1123.56,-229.17 1130.72,-236.99 1134.03,-230.82"/>
</g>
<!-- galaxy.travel_to&#45;&gt;galaxy.tweakseed -->
<g id="edge3" class="edge">
<title>galaxy.travel_to&#45;&gt;galaxy.tweakseed</title>
<path fill="none" stroke="black" d="M1200.56,-263.76C1189.41,-253.83 1178.07,-241.56 1170.88,-228 1158.41,-204.51 1153.78,-174.73 1152.2,-151.65"/>
<polygon fill="black" stroke="black" points="1155.7,-151.57 1151.71,-141.76 1148.71,-151.92 1155.7,-151.57"/>
</g>
<!-- galaxy.travel_to&#45;&gt;galaxy.generate_next_planet -->
<g id="edge7" class="edge">
<title>galaxy.travel_to&#45;&gt;galaxy.generate_next_planet</title>
<path fill="none" stroke="black" d="M1250.78,-263.66C1255.79,-255.69 1261.42,-246.73 1266.78,-238.19"/>
<polygon fill="black" stroke="black" points="1269.73,-240.07 1272.09,-229.74 1263.81,-236.34 1269.73,-240.07"/>
</g>
<!-- galaxy.travel_to&#45;&gt;strings.copy -->
<g id="edge11" class="edge">
<title>galaxy.travel_to&#45;&gt;strings.copy</title>
<path fill="none" stroke="black" d="M1298.86,-267.13C1328.74,-256.72 1365,-243.83 1405.13,-228.61"/>
<polygon fill="black" stroke="black" points="1406.19,-231.95 1414.28,-225.12 1403.69,-225.41 1406.19,-231.95"/>
</g>
<!-- galaxy.travel_to&#45;&gt;galaxy.make_current_planet_name -->
<g id="edge10" class="edge">
<title>galaxy.travel_to&#45;&gt;galaxy.make_current_planet_name</title>
<path fill="none" stroke="black" d="M1299.19,-266.32C1302.11,-265.5 1305.02,-264.72 1307.88,-264 1400.91,-240.67 1428.79,-244.48 1526.06,-228.44"/>
<polygon fill="black" stroke="black" points="1526.52,-231.91 1535.8,-226.8 1525.36,-225.01 1526.52,-231.91"/>
</g>
<!-- galaxy.init_market_for_planet -->
<g id="node13" class="node">
<title>galaxy.init_market_for_planet</title>
<polygon fill="#66ff66" stroke="black" points="1542.5,-316 1317.25,-316 1317.25,-264 1542.5,-264 1542.5,-316"/>
<text xml:space="preserve" text-anchor="start" x="1325.25" y="-299.7" font-family="Times,serif" font-size="14.00">galaxy.init_market_for_planet</text>
<text xml:space="preserve" text-anchor="start" x="1389.38" y="-289.5" font-family="Times,serif" font-size="10.00">Total: 1385 </text>
<text xml:space="preserve" text-anchor="start" x="1447.12" y="-289.5" font-family="Times,serif" font-size="10.00" fill="blue">(0%)</text>
<text xml:space="preserve" text-anchor="start" x="1411.5" y="-279.5" font-family="Times,serif" font-size="10.00">Calls: 1</text>
<text xml:space="preserve" text-anchor="start" x="1405.12" y="-269.5" font-family="Times,serif" font-size="10.00">Avg: 1385</text>
</g>
<!-- market.init -->
<g id="node14" class="node">
<title>market.init</title>
<polygon fill="#ccff00" stroke="black" points="1663.38,-316 1560.38,-316 1560.38,-264 1663.38,-264 1663.38,-316"/>
<text xml:space="preserve" text-anchor="start" x="1572.12" y="-299.7" font-family="Times,serif" font-size="14.00">market.init</text>
<text xml:space="preserve" text-anchor="start" x="1568.38" y="-289.5" font-family="Times,serif" font-size="10.00">Total: 27351 </text>
<text xml:space="preserve" text-anchor="start" x="1632.12" y="-289.5" font-family="Times,serif" font-size="10.00" fill="blue">(4%)</text>
<text xml:space="preserve" text-anchor="start" x="1593.5" y="-279.5" font-family="Times,serif" font-size="10.00">Calls: 2</text>
<text xml:space="preserve" text-anchor="start" x="1584.12" y="-269.5" font-family="Times,serif" font-size="10.00">Avg: 13675</text>
</g>
<!-- sys.memset -->
<g id="node15" class="node">
<title>sys.memset</title>
<polygon fill="#66ff66" stroke="black" points="1917.25,-228 1816.5,-228 1816.5,-176 1917.25,-176 1917.25,-228"/>
<text xml:space="preserve" text-anchor="start" x="1824.5" y="-211.7" font-family="Times,serif" font-size="14.00">sys.memset</text>
<text xml:space="preserve" text-anchor="start" x="1826.38" y="-201.5" font-family="Times,serif" font-size="10.00">Total: 1288 </text>
<text xml:space="preserve" text-anchor="start" x="1884.12" y="-201.5" font-family="Times,serif" font-size="10.00" fill="blue">(0%)</text>
<text xml:space="preserve" text-anchor="start" x="1848.5" y="-191.5" font-family="Times,serif" font-size="10.00">Calls: 1</text>
<text xml:space="preserve" text-anchor="start" x="1842.12" y="-181.5" font-family="Times,serif" font-size="10.00">Avg: 1288</text>
</g>
<!-- ship.init -->
<g id="node16" class="node">
<title>ship.init</title>
<polygon fill="#66ff66" stroke="black" points="1846.38,-316 1749.38,-316 1749.38,-264 1846.38,-264 1846.38,-316"/>
<text xml:space="preserve" text-anchor="start" x="1768.62" y="-299.7" font-family="Times,serif" font-size="14.00">ship.init</text>
<text xml:space="preserve" text-anchor="start" x="1757.38" y="-289.5" font-family="Times,serif" font-size="10.00">Total: 2270 </text>
<text xml:space="preserve" text-anchor="start" x="1815.12" y="-289.5" font-family="Times,serif" font-size="10.00" fill="blue">(0%)</text>
<text xml:space="preserve" text-anchor="start" x="1779.5" y="-279.5" font-family="Times,serif" font-size="10.00">Calls: 1</text>
<text xml:space="preserve" text-anchor="start" x="1773.12" y="-269.5" font-family="Times,serif" font-size="10.00">Avg: 2270</text>
</g>
<!-- ship.init&#45;&gt;sys.memset -->
<g id="edge34" class="edge">
<title>ship.init&#45;&gt;sys.memset</title>
<path fill="none" stroke="black" d="M1818.2,-263.66C1824.81,-255.43 1832.26,-246.14 1839.31,-237.36"/>
<polygon fill="black" stroke="black" points="1841.98,-239.62 1845.51,-229.63 1836.52,-235.24 1841.98,-239.62"/>
</g>
<!-- planet.print_name_uppercase -->
<g id="node17" class="node">
<title>planet.print_name_uppercase</title>
<polygon fill="#99ff00" stroke="black" points="558.25,-228 331.5,-228 331.5,-176 558.25,-176 558.25,-228"/>
<text xml:space="preserve" text-anchor="start" x="339.5" y="-211.7" font-family="Times,serif" font-size="14.00">planet.print_name_uppercase</text>
<text xml:space="preserve" text-anchor="start" x="404.38" y="-201.5" font-family="Times,serif" font-size="10.00">Total: 7039 </text>
<text xml:space="preserve" text-anchor="start" x="462.12" y="-201.5" font-family="Times,serif" font-size="10.00" fill="blue">(1%)</text>
<text xml:space="preserve" text-anchor="start" x="426.5" y="-191.5" font-family="Times,serif" font-size="10.00">Calls: 1</text>
<text xml:space="preserve" text-anchor="start" x="420.12" y="-181.5" font-family="Times,serif" font-size="10.00">Avg: 7039</text>
</g>
<!-- planet.print_name_uppercase&#45;&gt;txt.chrout -->
<g id="edge8" class="edge">
<title>planet.print_name_uppercase&#45;&gt;txt.chrout</title>
<path fill="none" stroke="black" d="M406.28,-175.66C392.41,-166.56 376.6,-156.18 362.02,-146.6"/>
<polygon fill="black" stroke="black" points="364.19,-143.85 353.91,-141.28 360.35,-149.7 364.19,-143.85"/>
</g>
<!-- txt.print_ub -->
<g id="node18" class="node">
<title>txt.print_ub</title>
<polygon fill="#99ff00" stroke="black" points="842.25,-228 741.5,-228 741.5,-176 842.25,-176 842.25,-228"/>
<text xml:space="preserve" text-anchor="start" x="749.5" y="-211.7" font-family="Times,serif" font-size="14.00">txt.print_ub</text>
<text xml:space="preserve" text-anchor="start" x="751.38" y="-201.5" font-family="Times,serif" font-size="10.00">Total: 8743 </text>
<text xml:space="preserve" text-anchor="start" x="809.12" y="-201.5" font-family="Times,serif" font-size="10.00" fill="blue">(1%)</text>
<text xml:space="preserve" text-anchor="start" x="773.5" y="-191.5" font-family="Times,serif" font-size="10.00">Calls: 5</text>
<text xml:space="preserve" text-anchor="start" x="767.12" y="-181.5" font-family="Times,serif" font-size="10.00">Avg: 1748</text>
</g>
<!-- txt.print_uw -->
<g id="node19" class="node">
<title>txt.print_uw</title>
<polygon fill="#99ff00" stroke="black" points="313.75,-228 210,-228 210,-176 313.75,-176 313.75,-228"/>
<text xml:space="preserve" text-anchor="start" x="218" y="-211.7" font-family="Times,serif" font-size="14.00">txt.print_uw</text>
<text xml:space="preserve" text-anchor="start" x="218.38" y="-201.5" font-family="Times,serif" font-size="10.00">Total: 11472 </text>
<text xml:space="preserve" text-anchor="start" x="282.12" y="-201.5" font-family="Times,serif" font-size="10.00" fill="blue">(1%)</text>
<text xml:space="preserve" text-anchor="start" x="243.5" y="-191.5" font-family="Times,serif" font-size="10.00">Calls: 4</text>
<text xml:space="preserve" text-anchor="start" x="237.12" y="-181.5" font-family="Times,serif" font-size="10.00">Avg: 2868</text>
</g>
<!-- planet.goatsoup_rnd_number -->
<g id="node20" class="node">
<title>planet.goatsoup_rnd_number</title>
<polygon fill="#ccff00" stroke="black" points="588.12,-52 363.62,-52 363.62,0 588.12,0 588.12,-52"/>
<text xml:space="preserve" text-anchor="start" x="371.62" y="-35.7" font-family="Times,serif" font-size="14.00">planet.goatsoup_rnd_number</text>
<text xml:space="preserve" text-anchor="start" x="432.38" y="-25.5" font-family="Times,serif" font-size="10.00">Total: 18611 </text>
<text xml:space="preserve" text-anchor="start" x="496.12" y="-25.5" font-family="Times,serif" font-size="10.00" fill="blue">(3%)</text>
<text xml:space="preserve" text-anchor="start" x="454.5" y="-15.5" font-family="Times,serif" font-size="10.00">Calls: 12</text>
<text xml:space="preserve" text-anchor="start" x="451.12" y="-5.5" font-family="Times,serif" font-size="10.00">Avg: 1550</text>
</g>
<!-- planet.getword -->
<g id="node21" class="node">
<title>planet.getword</title>
<polygon fill="#ccff00" stroke="black" points="731.25,-52 606.5,-52 606.5,0 731.25,0 731.25,-52"/>
<text xml:space="preserve" text-anchor="start" x="614.5" y="-35.7" font-family="Times,serif" font-size="14.00">planet.getword</text>
<text xml:space="preserve" text-anchor="start" x="625.38" y="-25.5" font-family="Times,serif" font-size="10.00">Total: 17390 </text>
<text xml:space="preserve" text-anchor="start" x="689.12" y="-25.5" font-family="Times,serif" font-size="10.00" fill="blue">(2%)</text>
<text xml:space="preserve" text-anchor="start" x="647.5" y="-15.5" font-family="Times,serif" font-size="10.00">Calls: 12</text>
<text xml:space="preserve" text-anchor="start" x="644.12" y="-5.5" font-family="Times,serif" font-size="10.00">Avg: 1449</text>
</g>
<!-- planet.soup.concat_string -->
<g id="node22" class="node">
<title>planet.soup.concat_string</title>
<polygon fill="#66ff66" stroke="black" points="948.75,-52 749,-52 749,0 948.75,0 948.75,-52"/>
<text xml:space="preserve" text-anchor="start" x="757" y="-35.7" font-family="Times,serif" font-size="14.00">planet.soup.concat_string</text>
<text xml:space="preserve" text-anchor="start" x="808.38" y="-25.5" font-family="Times,serif" font-size="10.00">Total: 1726 </text>
<text xml:space="preserve" text-anchor="start" x="866.12" y="-25.5" font-family="Times,serif" font-size="10.00" fill="blue">(0%)</text>
<text xml:space="preserve" text-anchor="start" x="830.5" y="-15.5" font-family="Times,serif" font-size="10.00">Calls: 1</text>
<text xml:space="preserve" text-anchor="start" x="824.12" y="-5.5" font-family="Times,serif" font-size="10.00">Avg: 1726</text>
</g>
<!-- planet.soup.recursive_soup -->
<g id="node23" class="node">
<title>planet.soup.recursive_soup</title>
<polygon fill="#ff6600" stroke="black" points="774.38,-140 563.38,-140 563.38,-88 774.38,-88 774.38,-140"/>
<text xml:space="preserve" text-anchor="start" x="571.38" y="-123.7" font-family="Times,serif" font-size="14.00">planet.soup.recursive_soup</text>
<text xml:space="preserve" text-anchor="start" x="619.38" y="-113.5" font-family="Times,serif" font-size="10.00">Total: 302443 </text>
<text xml:space="preserve" text-anchor="start" x="689.12" y="-113.5" font-family="Times,serif" font-size="10.00" fill="blue">(49%)</text>
<text xml:space="preserve" text-anchor="start" x="647.5" y="-103.5" font-family="Times,serif" font-size="10.00">Calls: 13</text>
<text xml:space="preserve" text-anchor="start" x="641.12" y="-93.5" font-family="Times,serif" font-size="10.00">Avg: 23264</text>
</g>
<!-- planet.soup.recursive_soup&#45;&gt;planet.goatsoup_rnd_number -->
<g id="edge12" class="edge">
<title>planet.soup.recursive_soup&#45;&gt;planet.goatsoup_rnd_number</title>
<path fill="none" stroke="black" d="M611.75,-87.55C590.26,-77.97 565.62,-66.99 543.27,-57.03"/>
<polygon fill="black" stroke="black" points="544.79,-53.88 534.23,-53 541.94,-60.27 544.79,-53.88"/>
</g>
<!-- planet.soup.recursive_soup&#45;&gt;planet.getword -->
<g id="edge15" class="edge">
<title>planet.soup.recursive_soup&#45;&gt;planet.getword</title>
<path fill="none" stroke="black" d="M668.88,-87.66C668.88,-80.21 668.88,-71.89 668.88,-63.87"/>
<polygon fill="black" stroke="black" points="672.38,-63.97 668.88,-53.97 665.38,-63.97 672.38,-63.97"/>
</g>
<!-- planet.soup.recursive_soup&#45;&gt;planet.soup.concat_string -->
<g id="edge33" class="edge">
<title>planet.soup.recursive_soup&#45;&gt;planet.soup.concat_string</title>
<path fill="none" stroke="black" d="M721.91,-87.66C741.78,-78.17 764.56,-67.28 785.29,-57.38"/>
<polygon fill="black" stroke="black" points="786.72,-60.58 794.23,-53.11 783.7,-54.26 786.72,-60.58"/>
</g>
<!-- planet.soup.recursive_soup&#45;&gt;planet.soup.recursive_soup -->
<g id="edge30" class="edge">
<title>planet.soup.recursive_soup&#45;&gt;planet.soup.recursive_soup</title>
<path fill="none" stroke="black" d="M774.72,-127.56C785.5,-124.88 792.38,-120.36 792.38,-114 792.38,-110.12 789.82,-106.93 785.39,-104.42"/>
<polygon fill="black" stroke="black" points="786.73,-101.19 776.14,-100.97 784.28,-107.75 786.73,-101.19"/>
</g>
<!-- planet.soup -->
<g id="node24" class="node">
<title>planet.soup</title>
<polygon fill="#ffaa00" stroke="black" points="723.38,-228 614.38,-228 614.38,-176 723.38,-176 723.38,-228"/>
<text xml:space="preserve" text-anchor="start" x="627.25" y="-211.7" font-family="Times,serif" font-size="14.00">planet.soup</text>
<text xml:space="preserve" text-anchor="start" x="622.38" y="-201.5" font-family="Times,serif" font-size="10.00">Total: 88822 </text>
<text xml:space="preserve" text-anchor="start" x="686.12" y="-201.5" font-family="Times,serif" font-size="10.00" fill="blue">(14%)</text>
<text xml:space="preserve" text-anchor="start" x="650.5" y="-191.5" font-family="Times,serif" font-size="10.00">Calls: 1</text>
<text xml:space="preserve" text-anchor="start" x="641.12" y="-181.5" font-family="Times,serif" font-size="10.00">Avg: 88822</text>
</g>
<!-- planet.soup&#45;&gt;planet.reset_rnd -->
<g id="edge1" class="edge">
<title>planet.soup&#45;&gt;planet.reset_rnd</title>
<path fill="none" stroke="black" d="M723.58,-179.29C726.71,-178.15 729.83,-177.05 732.88,-176 774.07,-161.82 820.58,-147.77 858.77,-136.73"/>
<polygon fill="black" stroke="black" points="859.73,-140.1 868.37,-133.97 857.79,-133.37 859.73,-140.1"/>
</g>
<!-- planet.soup&#45;&gt;planet.soup.recursive_soup -->
<g id="edge27" class="edge">
<title>planet.soup&#45;&gt;planet.soup.recursive_soup</title>
<path fill="none" stroke="black" d="M668.88,-175.66C668.88,-168.21 668.88,-159.89 668.88,-151.87"/>
<polygon fill="black" stroke="black" points="672.38,-151.97 668.88,-141.97 665.38,-151.97 672.38,-151.97"/>
</g>
<!-- planet.display -->
<g id="node25" class="node">
<title>planet.display</title>
<polygon fill="#ff6600" stroke="black" points="727.12,-316 610.62,-316 610.62,-264 727.12,-264 727.12,-316"/>
<text xml:space="preserve" text-anchor="start" x="618.62" y="-299.7" font-family="Times,serif" font-size="14.00">planet.display</text>
<text xml:space="preserve" text-anchor="start" x="619.38" y="-289.5" font-family="Times,serif" font-size="10.00">Total: 188737 </text>
<text xml:space="preserve" text-anchor="start" x="689.12" y="-289.5" font-family="Times,serif" font-size="10.00" fill="blue">(31%)</text>
<text xml:space="preserve" text-anchor="start" x="650.5" y="-279.5" font-family="Times,serif" font-size="10.00">Calls: 1</text>
<text xml:space="preserve" text-anchor="start" x="638.12" y="-269.5" font-family="Times,serif" font-size="10.00">Avg: 188737</text>
</g>
<!-- planet.display&#45;&gt;txt.chrout -->
<g id="edge32" class="edge">
<title>planet.display&#45;&gt;txt.chrout</title>
<path fill="none" stroke="black" d="M640.08,-263.61C628.67,-253.03 615.71,-240.35 604.88,-228 586,-206.48 590.69,-191.88 566.88,-176 511.78,-139.26 436.83,-124.59 382.83,-118.77"/>
<polygon fill="black" stroke="black" points="383.45,-115.31 373.15,-117.8 382.75,-122.28 383.45,-115.31"/>
</g>
<!-- planet.display&#45;&gt;txt.print -->
<g id="edge31" class="edge">
<title>planet.display&#45;&gt;txt.print</title>
<path fill="none" stroke="black" d="M727.32,-270.22C760.62,-259.33 803.32,-245.06 849.58,-228.41"/>
<polygon fill="black" stroke="black" points="850.49,-231.8 858.71,-225.1 848.11,-225.22 850.49,-231.8"/>
</g>
<!-- planet.display&#45;&gt;planet.print_name_uppercase -->
<g id="edge5" class="edge">
<title>planet.display&#45;&gt;planet.print_name_uppercase</title>
<path fill="none" stroke="black" d="M610.31,-266.52C583.18,-256.1 550.59,-243.59 521.53,-232.43"/>
<polygon fill="black" stroke="black" points="523,-229.25 512.41,-228.93 520.5,-235.78 523,-229.25"/>
</g>
<!-- planet.display&#45;&gt;txt.print_ub -->
<g id="edge26" class="edge">
<title>planet.display&#45;&gt;txt.print_ub</title>
<path fill="none" stroke="black" d="M705.11,-263.66C718.01,-254.64 732.7,-244.37 746.28,-234.88"/>
<polygon fill="black" stroke="black" points="748.04,-237.92 754.23,-229.32 744.03,-232.18 748.04,-237.92"/>
</g>
<!-- planet.display&#45;&gt;txt.print_uw -->
<g id="edge28" class="edge">
<title>planet.display&#45;&gt;txt.print_uw</title>
<path fill="none" stroke="black" d="M610.15,-282.55C542.99,-274.3 429.82,-257.8 325.26,-228.44"/>
<polygon fill="black" stroke="black" points="326.23,-225.08 315.65,-225.69 324.3,-231.81 326.23,-225.08"/>
</g>
<!-- planet.display&#45;&gt;planet.soup -->
<g id="edge6" class="edge">
<title>planet.display&#45;&gt;planet.soup</title>
<path fill="none" stroke="black" d="M668.88,-263.66C668.88,-256.21 668.88,-247.89 668.88,-239.87"/>
<polygon fill="black" stroke="black" points="672.38,-239.97 668.88,-229.97 665.38,-239.97 672.38,-239.97"/>
</g>
<!-- util.print_10s -->
<g id="node26" class="node">
<title>util.print_10s</title>
<polygon fill="#99ff00" stroke="black" points="317.88,-316 205.88,-316 205.88,-264 317.88,-264 317.88,-316"/>
<text xml:space="preserve" text-anchor="start" x="213.88" y="-299.7" font-family="Times,serif" font-size="14.00">util.print_10s</text>
<text xml:space="preserve" text-anchor="start" x="221.38" y="-289.5" font-family="Times,serif" font-size="10.00">Total: 8278 </text>
<text xml:space="preserve" text-anchor="start" x="279.12" y="-289.5" font-family="Times,serif" font-size="10.00" fill="blue">(1%)</text>
<text xml:space="preserve" text-anchor="start" x="243.5" y="-279.5" font-family="Times,serif" font-size="10.00">Calls: 1</text>
<text xml:space="preserve" text-anchor="start" x="237.12" y="-269.5" font-family="Times,serif" font-size="10.00">Avg: 8278</text>
</g>
<!-- util.print_10s&#45;&gt;txt.chrout -->
<g id="edge20" class="edge">
<title>util.print_10s&#45;&gt;txt.chrout</title>
<path fill="none" stroke="black" d="M227.59,-263.77C216.96,-253.92 206.55,-241.7 200.88,-228 192.03,-206.65 189.03,-195.85 200.88,-176 211.19,-158.71 228.28,-146.03 246.09,-136.86"/>
<polygon fill="black" stroke="black" points="247.14,-140.24 254.65,-132.77 244.12,-133.92 247.14,-140.24"/>
</g>
<!-- util.print_10s&#45;&gt;txt.print_uw -->
<g id="edge18" class="edge">
<title>util.print_10s&#45;&gt;txt.print_uw</title>
<path fill="none" stroke="black" d="M261.88,-263.66C261.88,-256.21 261.88,-247.89 261.88,-239.87"/>
<polygon fill="black" stroke="black" points="265.38,-239.97 261.88,-229.97 258.38,-239.97 265.38,-239.97"/>
</g>
<!-- main.start -->
<g id="node27" class="node">
<title>main.start</title>
<polygon fill="#ff0000" stroke="black" points="1058.38,-404 937.38,-404 937.38,-352 1058.38,-352 1058.38,-404"/>
<text xml:space="preserve" text-anchor="start" x="960.75" y="-387.7" font-family="Times,serif" font-size="14.00">main.start</text>
<text xml:space="preserve" text-anchor="start" x="945.38" y="-377.5" font-family="Times,serif" font-size="10.00">Total: 607415 </text>
<text xml:space="preserve" text-anchor="start" x="1015.12" y="-377.5" font-family="Times,serif" font-size="10.00" fill="blue">(100%)</text>
<text xml:space="preserve" text-anchor="start" x="979.5" y="-367.5" font-family="Times,serif" font-size="10.00">Calls: 1</text>
<text xml:space="preserve" text-anchor="start" x="967.12" y="-357.5" font-family="Times,serif" font-size="10.00">Avg: 607415</text>
</g>
<!-- main.start&#45;&gt;cbm.CHROUT -->
<g id="edge21" class="edge">
<title>main.start&#45;&gt;cbm.CHROUT</title>
<path fill="none" stroke="black" d="M937.1,-374.82C766.35,-368.35 284.71,-347.74 129.88,-316 128.88,-315.8 127.89,-315.58 126.88,-315.36"/>
<polygon fill="black" stroke="black" points="128.08,-312.05 117.53,-313.01 126.38,-318.84 128.08,-312.05"/>
</g>
<!-- main.start&#45;&gt;txt.chrout -->
<g id="edge23" class="edge">
<title>main.start&#45;&gt;txt.chrout</title>
<path fill="none" stroke="black" d="M937.18,-376.79C759.45,-375.59 249.28,-367.64 196.88,-316 152.48,-272.25 155.85,-228.86 188.88,-176 201.63,-155.58 223.4,-141.82 245.24,-132.62"/>
<polygon fill="black" stroke="black" points="246.47,-135.9 254.52,-129.01 243.93,-129.38 246.47,-135.9"/>
</g>
<!-- main.start&#45;&gt;txt.print -->
<g id="edge29" class="edge">
<title>main.start&#45;&gt;txt.print</title>
<path fill="none" stroke="black" d="M985.81,-351.7C971.61,-321.93 947.94,-272.31 931.88,-238.65"/>
<polygon fill="black" stroke="black" points="935.07,-237.22 927.61,-229.7 928.76,-240.23 935.07,-237.22"/>
</g>
<!-- main.start&#45;&gt;planet.set_seed -->
<g id="edge16" class="edge">
<title>main.start&#45;&gt;planet.set_seed</title>
<path fill="none" stroke="black" d="M1024.98,-351.66C1034.16,-343.08 1044.56,-333.36 1054.3,-324.25"/>
<polygon fill="black" stroke="black" points="1056.62,-326.87 1061.54,-317.49 1051.84,-321.76 1056.62,-326.87"/>
</g>
<!-- main.start&#45;&gt;planet.reset_rnd -->
<g id="edge19" class="edge">
<title>main.start&#45;&gt;planet.reset_rnd</title>
<path fill="none" stroke="black" d="M999.48,-351.68C1001.08,-312.67 1000.73,-236.12 978.88,-176 975.56,-166.88 970.55,-157.84 965.13,-149.62"/>
<polygon fill="black" stroke="black" points="968.14,-147.81 959.53,-141.63 962.41,-151.82 968.14,-147.81"/>
</g>
<!-- main.start&#45;&gt;galaxy.travel_to -->
<g id="edge9" class="edge">
<title>main.start&#45;&gt;galaxy.travel_to</title>
<path fill="none" stroke="black" d="M1058.6,-354.96C1089.54,-343.74 1127.43,-329.99 1160.15,-318.12"/>
<polygon fill="black" stroke="black" points="1160.95,-321.55 1169.15,-314.85 1158.56,-314.97 1160.95,-321.55"/>
</g>
<!-- main.start&#45;&gt;galaxy.init_market_for_planet -->
<g id="edge22" class="edge">
<title>main.start&#45;&gt;galaxy.init_market_for_planet</title>
<path fill="none" stroke="black" d="M1058.78,-365.16C1118.87,-353.45 1213.66,-334.88 1305.68,-316.43"/>
<polygon fill="black" stroke="black" points="1306.29,-319.88 1315.4,-314.48 1304.91,-313.02 1306.29,-319.88"/>
</g>
<!-- main.start&#45;&gt;market.init -->
<g id="edge17" class="edge">
<title>main.start&#45;&gt;market.init</title>
<path fill="none" stroke="black" d="M1058.73,-375.94C1159.75,-372.95 1368.1,-361.62 1549.1,-316.42"/>
<polygon fill="black" stroke="black" points="1549.86,-319.84 1558.69,-313.98 1548.13,-313.06 1549.86,-319.84"/>
</g>
<!-- main.start&#45;&gt;ship.init -->
<g id="edge4" class="edge">
<title>main.start&#45;&gt;ship.init</title>
<path fill="none" stroke="black" d="M1058.64,-373.7C1177.21,-366.78 1447.54,-348.62 1672.88,-316 1694.22,-312.91 1717.43,-308.55 1737.99,-304.33"/>
<polygon fill="black" stroke="black" points="1738.55,-307.79 1747.63,-302.32 1737.12,-300.94 1738.55,-307.79"/>
</g>
<!-- main.start&#45;&gt;planet.display -->
<g id="edge25" class="edge">
<title>main.start&#45;&gt;planet.display</title>
<path fill="none" stroke="black" d="M937.15,-361.13C880.98,-346.44 797.54,-324.63 738.65,-309.24"/>
<polygon fill="black" stroke="black" points="739.61,-305.87 729.05,-306.73 737.84,-312.65 739.61,-305.87"/>
</g>
<!-- main.start&#45;&gt;util.print_10s -->
<g id="edge13" class="edge">
<title>main.start&#45;&gt;util.print_10s</title>
<path fill="none" stroke="black" d="M937.02,-369.89C800.71,-353.96 471.71,-315.52 329.37,-298.89"/>
<polygon fill="black" stroke="black" points="330.07,-295.44 319.73,-297.76 329.26,-302.4 330.07,-295.44"/>
</g>
</g>
</svg>
